inDegrees=yes
name=ik_Shooting_orientation_zug2
DataType=double
version=3
OpenSimVersion=4.3-2021-08-27-4bc7ad9
endheader
time	pelvis_tilt	pelvis_list	pelvis_rotation	pelvis_tx	pelvis_ty	pelvis_tz	hip_flexion_r	hip_adduction_r	hip_rotation_r	knee_angle_r	knee_angle_r_beta	ankle_angle_r	subtalar_angle_r	mtp_angle_r	hip_flexion_l	hip_adduction_l	hip_rotation_l	knee_angle_l	knee_angle_l_beta	ankle_angle_l	subtalar_angle_l	mtp_angle_l	lumbar_extension	lumbar_bending	lumbar_rotation	arm_flex_r	arm_add_r	arm_rot_r	elbow_flex_r	pro_sup_r	wrist_flex_r	wrist_dev_r	arm_flex_l	arm_add_l	arm_rot_l	elbow_flex_l	pro_sup_l	wrist_flex_l	wrist_dev_l
10	-2.521223972590716	-1.662077517471556	147.2647758467832	0	0.9399999999999999	0	44.99843453493239	-9.9999999885521	0	59.99879424102335	1.04717650673247	-4.999999851047028	0	0	44.99843453493239	-9.9999999885521	0	59.99879424102335	1.04717650673247	-4.999999851047028	0	0	-1.011483729778685	-15.05267708519524	-5.470070838581051	13.5648736897423	-119.9914051966588	80.21688877059466	149.9943791967065	45.00000026204445	0	0	0	-14.92760114490927	0	75.0008687670841	45.00000026204445	0	0
10.01	-2.534131494929618	-1.644963084619548	147.2630735505909	0	0.9399999999999999	0	44.99843923013393	-9.999999988552265	0	59.99879804004587	1.047176573037921	-4.999999851047032	0	0	44.99843923013393	-9.999999988552265	0	59.99879804004587	1.047176573037921	-4.999999851047032	0	0	-1.729147379289268	-17.29930508610221	-9.359520377405465	23.65832088608861	-119.9930992938497	85.6127400802454	149.9941739107405	45.00000026199951	0	0	0	-14.92772778660187	0	75.00086668901508	45.00000026199951	0	0
10.02	-2.541841261767127	-1.647841538672851	147.259543559649	0	0.9399999999999999	0	44.99844293679143	-9.999999988552405	0	59.99880101236403	1.047176624914659	-4.999999851047034	0	0	44.99844293679143	-9.999999988552405	0	59.99880101236403	1.047176624914659	-4.999999851047034	0	0	-2.994527543675993	-18.95860356390169	-16.3359599312969	28.78574728818975	-119.9945858271741	89.93134319465304	149.9941916472453	45.00000026196363	0	0	0	-14.92782715277232	0	75.00086504847	45.00000026196363	0	0
10.03	-2.5511133542321	-1.639537930968762	147.2321257197387	0	0.9399999999999999	0	44.99844712823015	-9.999999988552556	0	59.99880443122395	1.047176684585022	-4.999999851047036	0	0	44.99844712823015	-9.999999988552556	0	59.99880443122395	1.047176684585022	-4.999999851047036	0	0	-4.448844691898366	-18.63838725125252	-25.76836925660981	30.85443076237832	-119.9955580780324	89.97725186708499	149.9940279790522	45.00000026192425	0	0	0	-14.92794112765465	0	75.00086319336341	45.00000026192425	0	0
10.04	-2.561657200467938	-1.634010180428486	147.2238623082248	0	0.9399999999999999	0	44.99844805013828	-9.999999988552604	0	59.99880505179384	1.047176695416009	-4.999999851047036	0	0	44.99844805013828	-9.999999988552604	0	59.99880505179384	1.047176695416009	-4.999999851047036	0	0	-5.955458069566403	-18.93022040173528	-34.29724943046659	31.36709695854567	-119.9962572442343	89.98580621813149	149.9942664368575	45.00000026191343	0	0	0	-14.92796297737467	0	75.0008627853326	45.00000026191343	0	0
10.05	-2.561585846597583	-1.63294573081929	147.2290015520512	0	0.9399999999999999	0	44.99844904810821	-9.999999988552647	0	59.99880572359432	1.04717670714114	-4.999999851047036	0	0	44.99844904810821	-9.999999988552647	0	59.99880572359432	1.04717670714114	-4.999999851047036	0	0	-7.355417113651924	-18.82309407731216	-42.69297459898194	29.6874279055661	-119.9966709956873	89.99025984478806	149.994425938453	45.00000026190173	0	0	0	-14.9279866354287	0	75.00086234363734	45.00000026190173	0	0
10.06	-2.576545208833061	-1.633714617447316	147.2227476200019	0	0.9399999999999999	0	44.99845289726446	-9.99999998855278	0	59.99880887736034	1.047176762184741	-4.999999851047039	0	0	44.99845289726446	-9.99999998855278	0	59.99880887736034	1.047176762184741	-4.999999851047039	0	0	-9.33034147666276	-20.01448491491101	-50.2279269487707	25.2493360442935	-119.9969139807247	89.99267957841208	149.9948923561583	45.00000026186584	0	0	0	-14.92809168057176	0	75.00086064002294	45.00000026186584	0	0
10.07	-2.578420506093676	-1.604334430714779	147.2303899850119	0	0.9399999999999999	0	44.99852074149175	-9.999999988554757	0	59.99885909751611	1.04717763869181	-4.99999985104706	0	0	44.99852074149175	-9.999999988554757	0	59.99885909751611	1.04717763869181	-4.99999985104706	0	0	-11.17394488916523	-20.75672166418603	-56.80880394443258	18.95178072344028	-119.996893463644	89.99428817398663	149.9950617855915	45.00000026131792	0	0	0	-14.92998689238018	0	75.00083061254762	45.00000026131792	0	0
10.08	-2.611894960619749	-1.602754630015416	147.2424319660239	0	0.9399999999999999	0	44.99857453741496	-9.999999988556132	0	59.99889896573476	1.047178334523492	-4.999999851047073	0	0	44.99857453741496	-9.999999988556132	0	59.99889896573476	1.047178334523492	-4.999999851047073	0	0	-14.15715395886309	-24.25046758103297	-60.20899955653861	11.66123500244622	-119.9968381404106	89.99496060016548	149.9956963740401	45.00000026092317	0	0	0	-14.93153154876019	0	75.00080680276696	45.00000026092317	0	0
10.09	-2.594939566270249	-1.59075000909117	147.2161005426828	0	0.9399999999999999	0	44.99857511276544	-9.999999988556153	0	59.99889935990166	1.047178341403002	-4.999999851047073	0	0	44.99857511276544	-9.999999988556153	0	59.99889935990166	1.047178341403002	-4.999999851047073	0	0	-14.37469102522487	-24.9716408844874	-59.42687263131491	11.40213750079153	-119.9968643866904	89.99486320214332	149.9958568088329	45.00000026091693	0	0	0	-14.93154571698588	0	75.00080654812031	45.00000026091693	0	0
10.1	-2.596008961187854	-1.586988083652294	147.205927310664	0	0.9399999999999999	0	44.99860477979026	-9.999999988557237	0	59.99892122516055	1.047178723023762	-4.999999851047085	0	0	44.99860477979026	-9.999999988557237	0	59.99892122516055	1.047178723023762	-4.999999851047085	0	0	-12.26808682176193	-23.39765614545329	-54.99398262952	18.31813405472044	-119.997004893063	89.99387980333748	149.9957113108236	45.00000026062817	0	0	0	-14.93231096131643	0	75.00079341767055	45.00000026062817	0	0
10.11	-2.610356076294993	-1.579534568873022	147.2132505096023	0	0.9399999999999999	0	44.99865523787121	-9.999999988558821	0	59.99895893580777	1.047179381198719	-4.999999851047106	0	0	44.99865523787121	-9.999999988558821	0	59.99895893580777	1.047179381198719	-4.999999851047106	0	0	-9.501746433780408	-21.45800140941268	-47.23501709214217	25.17421082436306	-119.9968976226429	89.99183823054261	149.9953450131218	45.00000026019195	0	0	0	-14.93366138252787	0	75.00077108521438	45.00000026019195	0	0
10.12	-2.626388307489544	-1.56567311907244	147.2271729934515	0	0.9399999999999999	0	44.99871298515887	-9.999999988560436	0	59.999002176318	1.047180135887992	-4.99999985104712	0	0	44.99871298515887	-9.999999988560436	0	59.999002176318	1.047180135887992	-4.99999985104712	0	0	-6.897368039076546	-19.51279687054776	-37.79540878116333	29.09510120982596	-119.9964459273583	89.98835645119482	149.9947450601109	45.00000025973419	0	0	0	-14.93525870076217	0	75.00074552658978	45.00000025973419	0	0
10.13	-2.649167931272745	-1.555468791113795	147.2252036436593	0	0.9399999999999999	0	44.99876991670445	-9.999999988561822	0	59.99904561263337	1.04718089399471	-4.999999851047131	0	0	44.99876991670445	-9.999999988561822	0	59.99904561263337	1.04718089399471	-4.999999851047131	0	0	-4.528127941215308	-17.18212157634448	-27.73305720909516	30.59982521528244	-119.9955298091218	89.9818009402295	149.9938535763877	45.00000025932815	0	0	0	-14.93690369379951	0	75.00072032899855	45.00000025932815	0	0
